<svg xmlns="http://www.w3.org/2000/svg" viewBox="0 0 240 200" width="240" height="200">
  <defs>
    <filter id="ds" x="-20%" y="-20%" width="140%" height="140%">
      <feDropShadow dx="0" dy="6" stdDeviation="5" flood-color="#1c140a" flood-opacity="0.45"/>
    </filter>
    <linearGradient id="hull" x1="0" y1="0" x2="0" y2="1">
      <stop offset="0" stop-color="#7a4a26"/><stop offset="1" stop-color="#5a3318"/>
    </linearGradient>
    <linearGradient id="cab" x1="0" y1="0" x2="0" y2="1">
      <stop offset="0" stop-color="#caa15e"/><stop offset="1" stop-color="#a87f42"/>
    </linearGradient>
  </defs>
  <g filter="url(#ds)" stroke="#efe2c4" stroke-width="4" stroke-linejoin="round">
    <!-- cabin -->
    <rect x="78" y="58" width="84" height="48" rx="4" fill="url(#cab)"/>
    <path d="M72 60 L120 36 L168 60 Z" fill="#8a5a2c"/>
    <!-- hull -->
    <path d="M28 104 Q120 92 212 104 L196 150 Q120 176 44 150 Z" fill="url(#hull)"/>
  </g>
  <g stroke="#3a2310" stroke-width="2.2" fill="none" opacity="0.55">
    <path d="M40 118 Q120 108 200 118"/>
    <path d="M48 134 Q120 126 192 134"/>
    <line x1="96" y1="60" x2="96" y2="104"/><line x1="120" y1="58" x2="120" y2="104"/><line x1="144" y1="60" x2="144" y2="104"/>
  </g>
</svg>
