<svg xmlns="http://www.w3.org/2000/svg" viewBox="0 0 120 220" width="120" height="220">
  <defs>
    <filter id="ds" x="-30%" y="-20%" width="160%" height="140%">
      <feDropShadow dx="0" dy="6" stdDeviation="4" flood-color="#1c140a" flood-opacity="0.45"/>
    </filter>
    <linearGradient id="robe" x1="0" y1="0" x2="0" y2="1">
      <stop offset="0" stop-color="#9a8252"/><stop offset="1" stop-color="#6e5a34"/>
    </linearGradient>
  </defs>
  <g filter="url(#ds)" stroke="#efe2c4" stroke-width="3.5" stroke-linejoin="round">
    <!-- robe body -->
    <path d="M30 80 Q60 60 90 80 L104 210 L16 210 Z" fill="url(#robe)"/>
    <!-- head -->
    <circle cx="60" cy="46" r="22" fill="#d8b483"/>
    <!-- hair/beard -->
    <path d="M38 44 Q40 20 60 20 Q80 20 82 44 Q74 32 60 32 Q46 32 38 44 Z" fill="#4a3a26"/>
    <path d="M44 56 Q60 84 76 56 Q72 70 60 74 Q48 70 44 56 Z" fill="#4a3a26"/>
    <!-- raised arm -->
    <path d="M86 84 Q108 64 100 44" fill="none" stroke="url(#robe)" stroke-width="12"/>
  </g>
  <g stroke="#3a2f1c" stroke-width="2" fill="none" opacity="0.5">
    <path d="M60 84 L60 206"/><path d="M44 120 Q60 128 76 120"/><path d="M40 160 Q60 170 80 160"/>
  </g>
</svg>
