<svg xmlns="http://www.w3.org/2000/svg" viewBox="0 0 260 200" width="260" height="200">
  <defs>
    <filter id="ds" x="-20%" y="-20%" width="140%" height="140%">
      <feDropShadow dx="0" dy="6" stdDeviation="5" flood-color="#1c140a" flood-opacity="0.45"/>
    </filter>
    <linearGradient id="st" x1="0" y1="0" x2="0" y2="1">
      <stop offset="0" stop-color="#c2b189"/><stop offset="1" stop-color="#8a7a56"/>
    </linearGradient>
  </defs>
  <g filter="url(#ds)" stroke="#efe2c4" stroke-width="4" stroke-linejoin="round" fill="url(#st)">
    <!-- broken columns -->
    <path d="M30 196 L30 70 L58 70 L58 196 Z"/>
    <path d="M30 70 L58 70 L62 56 L26 56 Z"/>
    <path d="M86 196 L86 96 L114 96 L114 196 Z"/>
    <path d="M86 96 L114 96 L114 84 L86 88 Z"/>
    <!-- fallen lintel -->
    <path d="M22 56 L150 44 L150 60 L22 72 Z"/>
    <!-- rubble blocks -->
    <rect x="150" y="160" width="40" height="36"/>
    <rect x="196" y="150" width="46" height="46"/>
    <rect x="172" y="132" width="34" height="26"/>
  </g>
  <g stroke="#5a4c34" stroke-width="2" fill="none" opacity="0.5">
    <line x1="44" y1="80" x2="44" y2="190"/><line x1="100" y1="104" x2="100" y2="190"/>
    <line x1="196" y1="172" x2="242" y2="172"/>
  </g>
</svg>
