<svg xmlns="http://www.w3.org/2000/svg" viewBox="0 0 200 200" width="200" height="200">
  <defs>
    <filter id="ds" x="-20%" y="-20%" width="140%" height="140%">
      <feDropShadow dx="0" dy="5" stdDeviation="4" flood-color="#1c140a" flood-opacity="0.45"/>
    </filter>
    <linearGradient id="sk" x1="0" y1="0" x2="1" y2="1">
      <stop offset="0" stop-color="#6a8c3a"/><stop offset="1" stop-color="#3f5a22"/>
    </linearGradient>
  </defs>
  <g filter="url(#ds)" stroke="#efe2c4" stroke-width="3.5" fill="none">
    <path d="M150 30 Q90 30 92 70 Q94 104 140 104 Q176 104 168 138 Q160 170 110 170 Q40 170 40 120 Q40 86 78 86"
          stroke="url(#sk)" stroke-width="20" stroke-linecap="round"/>
  </g>
  <g stroke="#efe2c4" stroke-width="2.5">
    <path d="M150 30 q16 -6 26 2 q-10 4 -10 12 q-10 -4 -16 -2 Z" fill="#6a8c3a"/>
    <circle cx="160" cy="30" r="2.6" fill="#1c140a"/>
  </g>
  <g stroke="#bcd29a" stroke-width="2" fill="none" opacity="0.6">
    <path d="M92 70 Q120 78 140 96"/><path d="M60 110 Q90 128 120 132"/>
  </g>
</svg>
