<svg xmlns="http://www.w3.org/2000/svg" viewBox="0 0 200 200" width="200" height="200">
  <defs>
    <filter id="ds" x="-30%" y="-30%" width="160%" height="160%">
      <feDropShadow dx="0" dy="4" stdDeviation="5" flood-color="#5a3a10" flood-opacity="0.4"/>
    </filter>
    <radialGradient id="disc" cx="0.5" cy="0.45" r="0.6">
      <stop offset="0" stop-color="#f6d98a"/><stop offset="1" stop-color="#d99a3a"/>
    </radialGradient>
  </defs>
  <g filter="url(#ds)" stroke="#efe2c4" stroke-width="3.5">
    <g fill="#e0a83e">
      <path d="M100 6 L112 44 L88 44 Z"/><path d="M100 194 L112 156 L88 156 Z"/>
      <path d="M6 100 L44 112 L44 88 Z"/><path d="M194 100 L156 112 L156 88 Z"/>
      <path d="M30 30 L62 54 L46 70 Z"/><path d="M170 30 L138 54 L154 70 Z"/>
      <path d="M30 170 L62 146 L46 130 Z"/><path d="M170 170 L138 146 L154 130 Z"/>
    </g>
    <circle cx="100" cy="100" r="52" fill="url(#disc)"/>
  </g>
</svg>
